<svg height="400" viewBox="0 0 400 400" width="400" xmlns="http://www.w3.org/2000/svg"><g fill-rule="evenodd"><path d="m127.468 18.666c-.148.147-.268 24.627-.268 54.399v54.132l-54.3.102-54.3.101v72.6 72.6l54.299.101 54.298.102.102 54.298.101 54.299h72.6 72.6l.101-54.299.102-54.298 54.298-.102 54.299-.101v-72.6-72.6l-54.299-.101-54.298-.102-.102-54.298-.101-54.299-72.432-.101c-39.838-.056-72.553.019-72.7.167m145.332 181.334v72.8h-72.8-72.8v-72.8-72.8h72.8 72.8z" fill="#2ca464"/><path d="m0 200v200h200 200v-200-200h-200-200zm272.701-127.101.102 54.298 54.298.102 54.299.101v72.6 72.6l-54.299.101-54.298.102-.102 54.298-.101 54.299h-72.6-72.6l-.101-54.299-.102-54.298-54.298-.102-54.299-.101v-72.6-72.6l54.3-.101 54.3-.102v-54.132c0-29.772.12-54.252.268-54.399.147-.148 32.862-.223 72.7-.167l72.432.101zm-145.501 127.101v72.8h72.8 72.8v-72.8-72.8h-72.8-72.8z" fill="#14845c"/></g></svg>