<svg height="400" viewBox="0 0 400 400" width="400" xmlns="http://www.w3.org/2000/svg"><g fill-rule="evenodd"><path d="m57.2 185.8v42.6h28.6 28.6v-28.4-28.4h-14.4-14.4v-14.2-14.2h-14.2-14.2zm257.2-28.4v14.2h-14.4-14.4v28.4 28.4h28.6 28.6v-42.6-42.6h-14.2-14.2zm-171.2 56.8v14.2h14.2 14.2v-14.2-14.2h-14.2-14.2zm85.2-.005v14.205h14.405 14.405l-.105-14.1-.105-14.1-14.3-.105-14.3-.105zm-199.733 14.472c-.147.146-.267 13.016-.267 28.6v28.333h14.4 14.4v14.4 14.4h14.2 14.2v14.2 14.2h14.4 14.4v14.4 14.4h85.6 85.6v-14.4-14.4h14.395 14.395l.105-14.1.105-14.1 14.1-.105 14.1-.105v-14.395-14.395h14.4 14.4v-28.6-28.6h-14.195-14.195l-.105 14.3-.105 14.3-28.7.103-28.7.102v14.198 14.197h-85.6-85.6v-14.197-14.198l-28.7-.102-28.7-.103-.105-14.3-.105-14.3h-13.928c-7.661 0-14.049.12-14.195.267" fill="#fcfcfc"/><path d="m114.4 14.2v14.2h-28.8-28.8v14.2 14.2h-14.2-14.2v28.8 28.8h-14.2-14.2v85.6 85.6h14.2 14.2v28.8 28.8h14.2 14.2v14.2 14.2h28.8 28.8v14.2 14.2h85.6 85.6v-14.2-14.2h28.8 28.8v-14.2-14.2h14.2 14.2v-28.8-28.8h14.2 14.2v-85.6-85.6h-14.2-14.2v-28.8-28.8h-14.2-14.2v-14.2-14.2h-28.8-28.8v-14.2-14.2h-85.6-85.6zm-28.8 143.2v14.2h14.4 14.4v28.4 28.4h-28.6-28.6v-42.6-42.6h14.2 14.2zm257.2 28.4v42.6h-28.6-28.6v-28.4-28.4h14.4 14.4v-14.2-14.2h14.2 14.2zm-171.2 28.4v14.2h-14.2-14.2v-14.2-14.2h14.2 14.2zm85.505.1.105 14.1h-14.405-14.405v-14.205-14.205l14.3.105 14.3.105zm-200.21 28.4.105 14.3 28.7.103 28.7.102v14.198 14.197h85.6 85.6v-14.197-14.198l28.7-.102 28.7-.103.105-14.3.105-14.3h14.195 14.195v28.6 28.6h-14.4-14.4v14.395 14.395l-14.1.105-14.1.105-.105 14.1-.105 14.1h-14.395-14.395v14.4 14.4h-85.6-85.6v-14.4-14.4h-14.4-14.4v-14.2-14.2h-14.2-14.2v-14.4-14.4h-14.4-14.4v-28.333c0-15.584.12-28.454.267-28.6.146-.147 6.534-.267 14.195-.267h13.928z" fill="#444"/></g></svg>